<?xml version="1.0"?>
<svg viewBox="0 0 522 342" xmlns="http://www.w3.org/2000/svg" xmlns:svg="http://www.w3.org/2000/svg" version="1.1" xml:space="preserve">
 <title>cassette-tape</title>
 <g class="layer">
  <title>Layer 1</title>
  <g id="SVGRepo_bgCarrier" stroke-width="0"/>
  <g id="SVGRepo_tracerCarrier" stroke-linecap="round" stroke-linejoin="round"/>
  <g id="SVGRepo_iconCarrier">
   <style type="text/css">.st0{fill:#000000;}</style>
   <g id="svg_1">
    <path class="st0" d="m515.73,18.22c-1.71,-4.05 -4.55,-7.47 -8.13,-9.89c-3.57,-2.43 -7.94,-3.85 -12.56,-3.83l-467.08,0c-3.07,0 -6.05,0.63 -8.75,1.76c-4.03,1.71 -7.44,4.55 -9.86,8.13c-2.43,3.57 -3.85,7.94 -3.85,12.56l0,287.43c0,3.07 0.64,6.04 1.77,8.75c1.72,4.05 4.55,7.46 8.14,9.87c3.56,2.41 7.94,3.84 12.55,3.84l467.07,0c3.09,0 6.06,-0.64 8.76,-1.78c4.04,-1.71 7.45,-4.54 9.88,-8.13c2.41,-3.56 3.83,-7.92 3.83,-12.55l0,-287.43c0,-3.07 -0.63,-6.06 -1.77,-8.73zm-397.1,301.48l11.53,-49.28c1.14,-4.88 5.5,-8.34 10.52,-8.34l241.66,0c5.01,0 9.38,3.46 10.52,8.34l11.52,49.28l-285.75,0zm381.74,-5.32c0,0.75 -0.17,1.44 -0.42,2.07c-0.41,0.93 -1.09,1.75 -1.93,2.35c-0.88,0.56 -1.85,0.9 -2.99,0.9l-80.57,0l-12.07,-51.51c-2.17,-9.32 -10.48,-15.9 -20.05,-15.9l-241.67,0c-9.57,0 -17.88,6.58 -20.06,15.9l-12.05,51.51l-80.6,0c-0.75,0 -1.43,-0.16 -2.06,-0.42c-0.95,-0.4 -1.78,-1.09 -2.35,-1.93c-0.57,-0.87 -0.9,-1.83 -0.9,-2.96l0,-287.44c0,-0.76 0.15,-1.43 0.41,-2.06c0.4,-0.95 1.09,-1.77 1.95,-2.35c0.85,-0.58 1.84,-0.9 2.95,-0.9l467.08,0c0.76,0 1.44,0.15 2.07,0.4c0.94,0.41 1.77,1.1 2.35,1.95c0.57,0.85 0.9,1.83 0.91,2.96l0,287.43z" id="svg_2" stroke-width="3"/>
    <path class="st0" d="m171.55,279.81c-7.8,0 -14.1,6.32 -14.1,14.1c0,7.79 6.3,14.12 14.1,14.12c7.79,0 14.11,-6.33 14.11,-14.12c0,-7.78 -6.32,-14.1 -14.11,-14.1z" id="svg_3"/>
    <path class="st0" d="m368.74,279.81c-7.79,0 -14.11,6.32 -14.11,14.1c0,7.79 6.32,14.12 14.11,14.12s14.11,-6.33 14.11,-14.12c0,-7.78 -6.32,-14.1 -14.11,-14.1z" id="svg_4"/>
    <path class="st0" d="m42.98,32.6c-5.41,0 -9.81,4.39 -9.81,9.81c0,5.4 4.39,9.79 9.81,9.79c5.41,0 9.8,-4.39 9.8,-9.79c0,-5.42 -4.39,-9.81 -9.8,-9.81z" id="svg_5"/>
    <path class="st0" d="m479.02,32.6c-5.39,0 -9.78,4.39 -9.78,9.81c0,5.4 4.39,9.79 9.78,9.79c5.42,0 9.81,-4.39 9.81,-9.79c0,-5.42 -4.39,-9.81 -9.81,-9.81z" id="svg_6"/>
    <path class="st0" d="m42.98,291.46c-5.41,0 -9.81,4.39 -9.81,9.81c0,5.41 4.39,9.78 9.81,9.78c5.41,0 9.8,-4.37 9.8,-9.78c0,-5.41 -4.39,-9.81 -9.8,-9.81z" id="svg_7"/>
    <path class="st0" d="m479.02,291.46c-5.39,0 -9.78,4.39 -9.78,9.81c0,5.41 4.39,9.78 9.78,9.78c5.42,0 9.81,-4.37 9.81,-9.78c0,-5.41 -4.39,-9.81 -9.81,-9.81z" id="svg_8"/>
    <path class="st0" d="m151.47,123.49c-11.94,0 -22.79,4.85 -30.59,12.66c-7.83,7.83 -12.68,18.67 -12.68,30.61c0,11.94 4.85,22.79 12.68,30.62c7.8,7.82 18.65,12.68 30.59,12.68c11.95,0 22.79,-4.86 30.6,-12.68c7.83,-7.83 12.69,-18.68 12.69,-30.62c0,-11.94 -4.86,-22.78 -12.69,-30.61c-7.81,-7.81 -18.65,-12.66 -30.6,-12.66zm35.94,43.27c0,4.92 -0.99,9.6 -2.78,13.85l-8.95,-5.17l-5.08,8.79l8.83,5.1c-0.8,0.99 -1.66,1.93 -2.54,2.84c-5.39,5.37 -12.43,9.04 -20.34,10.16l0,-9.98l-10.15,0l0,9.98c-7.9,-1.12 -14.94,-4.79 -20.33,-10.16c-0.9,-0.91 -1.75,-1.85 -2.56,-2.84l8.84,-5.1l-5.08,-8.79l-8.95,5.17c-1.79,-4.25 -2.77,-8.93 -2.78,-13.85c0.01,-4.56 0.86,-8.92 2.42,-12.93l9.31,5.38l5.08,-8.78l-9.43,-5.46c0.96,-1.27 2.02,-2.48 3.15,-3.61c5.39,-5.38 12.43,-9.04 20.33,-10.17l0,11.13l10.15,0l0,-11.13c7.91,1.13 14.95,4.79 20.34,10.17c1.13,1.13 2.18,2.34 3.15,3.61l-9.44,5.45l5.08,8.79l9.32,-5.38c1.54,4.01 2.41,8.37 2.41,12.93z" id="svg_9" stroke-width="0"/>
    <path class="st0" d="m370.53,123.49c-11.93,0 -22.78,4.85 -30.61,12.66c-7.82,7.83 -12.68,18.67 -12.68,30.61c0,11.94 4.86,22.79 12.68,30.62c7.83,7.82 18.68,12.68 30.61,12.68c11.94,0 22.79,-4.86 30.6,-12.68c7.83,-7.83 12.68,-18.68 12.68,-30.62c0,-11.94 -4.85,-22.78 -12.68,-30.61c-7.81,-7.81 -18.66,-12.66 -30.6,-12.66zm35.92,43.27c0,4.92 -0.98,9.6 -2.75,13.85l-8.96,-5.17l-5.08,8.79l8.82,5.1c-0.8,0.99 -1.64,1.93 -2.54,2.84c-5.38,5.37 -12.44,9.04 -20.34,10.16l0,-9.98l-10.16,0l0,9.98c-7.88,-1.12 -14.94,-4.79 -20.32,-10.16c-0.89,-0.91 -1.74,-1.85 -2.54,-2.84l8.82,-5.1l-5.08,-8.79l-8.95,5.17c-1.79,-4.25 -2.76,-8.93 -2.76,-13.85c0,-4.56 0.85,-8.92 2.39,-12.93l9.32,5.38l5.08,-8.78l-9.43,-5.46c0.96,-1.27 2.02,-2.48 3.15,-3.61c5.38,-5.38 12.44,-9.04 20.32,-10.17l0,11.13l10.16,0l0,-11.13c7.9,1.13 14.96,4.79 20.34,10.17c1.13,1.13 2.18,2.34 3.15,3.61l-9.42,5.45l5.07,8.79l9.31,-5.38c1.55,4.01 2.4,8.37 2.4,12.93z" id="svg_11" stroke-width="0"/>
    <path class="st0" d="m412.23,104.93c-5.94,-4.02 -12.51,-7.2 -19.54,-9.4c-7.01,-2.17 -14.47,-3.35 -22.17,-3.35c-10.25,0 -20.11,2.08 -29.03,5.86c-13.4,5.67 -24.76,15.11 -32.8,27c-4.02,5.94 -7.21,12.52 -9.38,19.54c-2.19,7.02 -3.36,14.49 -3.36,22.18c-0.01,10.25 2.08,20.1 5.86,29.03c5.68,13.4 15.11,24.76 27.01,32.79c5.94,4.02 12.52,7.2 19.53,9.4c7.02,2.17 14.49,3.34 22.18,3.34c10.26,0.02 20.1,-2.08 29.03,-5.86c13.4,-5.67 24.76,-15.11 32.8,-27c4.01,-5.94 7.2,-12.52 9.38,-19.54c2.19,-7.02 3.36,-14.49 3.36,-22.18c0,-10.26 -2.08,-20.1 -5.87,-29.03c-5.67,-13.4 -15.11,-24.76 -27,-32.79l0,0.01zm1.75,80.18c-3.58,8.45 -9.57,15.66 -17.11,20.76c-3.76,2.54 -7.9,4.54 -12.32,5.93c-4.41,1.36 -9.1,2.09 -14.02,2.09c-6.56,0 -12.72,-1.31 -18.35,-3.68c-8.44,-3.58 -15.68,-9.56 -20.75,-17.1c-2.56,-3.75 -4.56,-7.91 -5.94,-12.32c-1.38,-4.41 -2.12,-9.12 -2.12,-14.03c0,-6.56 1.32,-12.72 3.71,-18.35c3.56,-8.45 9.56,-15.66 17.09,-20.75c3.77,-2.55 7.91,-4.55 12.33,-5.94c4.41,-1.37 9.11,-2.11 14.02,-2.11c6.56,0 12.71,1.33 18.36,3.71c8.44,3.57 15.66,9.56 20.75,17.09c2.54,3.75 4.55,7.91 5.92,12.32c1.38,4.42 2.12,9.11 2.12,14.03c0,6.56 -1.31,12.71 -3.69,18.35z" id="svg_12" stroke-width="0"/>
    <path class="st0" d="m193.7,105.17c-5.94,-4.02 -12.51,-7.2 -19.54,-9.4c-7.01,-2.17 -14.47,-3.35 -22.17,-3.35c-10.25,0 -20.11,2.08 -29.03,5.86c-13.4,5.67 -24.76,15.11 -32.8,27c-4.02,5.94 -7.21,12.52 -9.38,19.54c-2.19,7.02 -3.36,14.49 -3.36,22.18c-0.01,10.25 2.08,20.1 5.86,29.03c5.68,13.4 15.11,24.76 27.01,32.79c5.94,4.02 12.52,7.2 19.53,9.4c7.02,2.17 14.49,3.34 22.18,3.34c10.26,0.02 20.1,-2.08 29.03,-5.86c13.4,-5.67 24.76,-15.11 32.8,-27c4.01,-5.94 7.2,-12.52 9.38,-19.54c2.19,-7.02 3.36,-14.49 3.36,-22.18c0,-10.26 -2.08,-20.1 -5.87,-29.03c-5.67,-13.4 -15.11,-24.76 -27,-32.79l0,0.01zm1.75,80.18c-3.58,8.45 -9.57,15.66 -17.11,20.76c-3.76,2.54 -7.9,4.54 -12.32,5.93c-4.41,1.36 -9.1,2.09 -14.02,2.09c-6.56,0 -12.72,-1.31 -18.35,-3.68c-8.44,-3.58 -15.68,-9.56 -20.75,-17.1c-2.56,-3.75 -4.56,-7.91 -5.94,-12.32c-1.38,-4.41 -2.12,-9.12 -2.12,-14.03c0,-6.56 1.32,-12.72 3.71,-18.35c3.56,-8.45 9.56,-15.66 17.09,-20.75c3.77,-2.55 7.91,-4.55 12.33,-5.94c4.41,-1.37 9.11,-2.11 14.02,-2.11c6.56,0 12.71,1.33 18.36,3.71c8.44,3.57 15.66,9.56 20.75,17.09c2.54,3.75 4.55,7.91 5.92,12.32c1.38,4.42 2.12,9.11 2.12,14.03c0,6.56 -1.31,12.71 -3.69,18.35z" id="svg_13" stroke-width="0"/>
    <rect fill="#000000" fill-opacity="0" height="42" id="svg_14" stroke="#000000" stroke-width="7" width="377" x="73" y="32"/>
   </g>
  </g>
 </g>
</svg>